# xmcd
#
# Track frame offsets:
#	150
#	24122
#	35815
#	57060
#	77430
#	107317
#	125112
#	148080
#	175532
#	198452
#
# Disc length: 2778 seconds
#
# Revision: 6
# Processed by: cddbd v1.5.2PL0 Copyright (c) Steve Scherf et al.
# Submitted via: audiograbber 1.83.01
#
DISCID=7a0ad80a
DTITLE=Santana - Between Good And Evil
DYEAR=1996
DGENRE=Rock
TTITLE0=Black Magic Woman/Gypsy Queen
TTITLE1=Persuasion
TTITLE2=Samba Pa Ti
TTITLE3=Practice What You Preach
TTITLE4=Soul Sacrifice
TTITLE5=Evil Ways
TTITLE6=I'll Be Waiting
TTITLE7=Song Of The Wind
TTITLE8=Europa (Earth's Cry Heaven's Smile)
TTITLE9=Jugando
EXTD=YEAR: 1996
EXTT0=
EXTT1=
EXTT2=
EXTT3=
EXTT4=
EXTT5=
EXTT6=
EXTT7=
EXTT8=
EXTT9=
PLAYORDER=
